<svg width="20" height="20" viewBox="0 0 20 20" fill="none" xmlns="http://www.w3.org/2000/svg">
<path fill-rule="evenodd" clip-rule="evenodd" d="M10.4689 4.16675C10.4689 3.90786 10.259 3.698 10.0001 3.698C9.74124 3.698 9.53137 3.90786 9.53137 4.16675V9.53136H4.16699C3.90811 9.53136 3.69824 9.74122 3.69824 10.0001C3.69824 10.259 3.90811 10.4689 4.16699 10.4689H9.53137V15.8334C9.53137 16.0923 9.74124 16.3022 10.0001 16.3022C10.259 16.3022 10.4689 16.0923 10.4689 15.8334V10.4689H15.8337C16.0925 10.4689 16.3024 10.259 16.3024 10.0001C16.3024 9.74122 16.0925 9.53136 15.8337 9.53136H10.4689V4.16675Z" fill="#121212"/>
</svg>
