<svg width="36" height="36" viewBox="0 0 36 36" fill="none" xmlns="http://www.w3.org/2000/svg">
<rect width="36" height="36" rx="18" fill="white"/>
<path fill-rule="evenodd" clip-rule="evenodd" d="M12.2884 13.8265C12.4133 13.5861 12.6646 13.4219 12.9543 13.4219H23.4543C23.744 13.4219 23.9953 13.5861 24.1202 13.8265L18.2043 17.7705L12.2884 13.8265ZM10.7043 14.1575C10.7042 14.1657 10.7042 14.1739 10.7043 14.1821V21.6719C10.7043 22.9145 11.7117 23.9219 12.9543 23.9219H23.4543C24.6969 23.9219 25.7043 22.9145 25.7043 21.6719V14.1821M24.2043 15.5733V21.6719C24.2043 22.0861 23.8685 22.4219 23.4543 22.4219H12.9543C12.5401 22.4219 12.2043 22.0861 12.2043 21.6719V15.5733L17.7883 19.2959C18.0402 19.4639 18.3684 19.4639 18.6203 19.2959L24.2043 15.5733ZM25.7043 14.1575C25.6965 12.9215 24.6921 11.9219 23.4543 11.9219H12.9543C11.7165 11.9219 10.7121 12.9215 10.7043 14.1575" fill="#121212"/>
</svg>
