<svg width="21" height="27" viewBox="0 0 21 27" fill="none" xmlns="http://www.w3.org/2000/svg">
<path fill-rule="evenodd" clip-rule="evenodd" d="M6.98378 3.52309C7.84333 2.66355 9.00912 2.18066 10.2247 2.18066C11.4403 2.18066 12.6061 2.66355 13.4656 3.52309C14.3251 4.38263 14.808 5.54842 14.808 6.764V11.3473H5.64136V6.764C5.64136 5.54842 6.12424 4.38263 6.98378 3.52309ZM4.14136 11.3473V6.764C4.14136 5.1506 4.78228 3.60328 5.92312 2.46243C7.06397 1.32158 8.61129 0.680664 10.2247 0.680664C11.8381 0.680664 13.3854 1.32158 14.5263 2.46243C15.6671 3.60328 16.308 5.1506 16.308 6.764V11.3473H16.8914C18.7783 11.3473 20.308 12.877 20.308 14.764V22.764C20.308 24.651 18.7783 26.1807 16.8914 26.1807H3.55802C1.67105 26.1807 0.141357 24.651 0.141357 22.764V14.764C0.141357 12.877 1.67105 11.3473 3.55802 11.3473H4.14136ZM15.558 12.8473H16.8914C17.9499 12.8473 18.808 13.7055 18.808 14.764V22.764C18.808 23.8225 17.9499 24.6807 16.8914 24.6807H3.55802C2.49948 24.6807 1.64136 23.8225 1.64136 22.764V14.764C1.64136 13.7055 2.49948 12.8473 3.55802 12.8473H4.89136H15.558ZM10.2247 18.1807C9.90252 18.1807 9.64136 18.4418 9.64136 18.764C9.64136 19.0862 9.90252 19.3473 10.2247 19.3473C10.5469 19.3473 10.808 19.0862 10.808 18.764C10.808 18.4418 10.5469 18.1807 10.2247 18.1807ZM8.14136 18.764C8.14136 17.6134 9.0741 16.6807 10.2247 16.6807C11.3753 16.6807 12.308 17.6134 12.308 18.764C12.308 19.9146 11.3753 20.8473 10.2247 20.8473C9.0741 20.8473 8.14136 19.9146 8.14136 18.764Z" fill="#121212"/>
</svg>
