<svg width="28" height="21" viewBox="0 0 28 21" fill="none" xmlns="http://www.w3.org/2000/svg">
<path fill-rule="evenodd" clip-rule="evenodd" d="M1.66663 0.416504C1.25241 0.416504 0.916626 0.75229 0.916626 1.1665C0.916626 1.58072 1.25241 1.9165 1.66663 1.9165H15.5833V2.49984V9.1665V16.4165H11.6674C11.3256 14.8903 9.96261 13.7498 8.33329 13.7498C6.70397 13.7498 5.34103 14.8903 4.9992 16.4165H3.74996V11.8332C3.74996 11.419 3.41417 11.0832 2.99996 11.0832C2.58575 11.0832 2.24996 11.419 2.24996 11.8332V17.1665C2.24996 17.5807 2.58575 17.9165 2.99996 17.9165H4.9992C5.34103 19.4427 6.70398 20.5832 8.33329 20.5832C9.96261 20.5832 11.3256 19.4427 11.6674 17.9165H16.3333H18.3325C18.6744 19.4427 20.0373 20.5832 21.6666 20.5832C23.2959 20.5832 24.6589 19.4427 25.0007 17.9165H27C27.4142 17.9165 27.75 17.5807 27.75 17.1665V9.1788C27.7512 9.10795 27.7424 9.03647 27.723 8.96655C27.7037 8.8964 27.6744 8.83037 27.6367 8.77007L23.6431 2.11397C23.5075 1.88806 23.2634 1.74984 23 1.74984H17.0833V1.1665C17.0833 0.75229 16.7475 0.416504 16.3333 0.416504H1.66663ZM25.0007 16.4165H26.25V9.9165H17.0833V16.4165H18.3325C18.6744 14.8903 20.0373 13.7498 21.6666 13.7498C23.2959 13.7498 24.6589 14.8903 25.0007 16.4165ZM6.41663 17.1672C6.41702 18.2254 7.27499 19.0832 8.33329 19.0832C9.39184 19.0832 10.25 18.225 10.25 17.1665C10.25 16.108 9.39184 15.2498 8.33329 15.2498C7.27475 15.2498 6.41663 16.108 6.41663 17.1665C6.41663 17.1667 6.41663 17.167 6.41663 17.1672ZM17.0833 8.4165V3.24984H22.5753L25.6753 8.4165H17.0833ZM21.6666 15.2498C20.6081 15.2498 19.75 16.108 19.75 17.1665C19.75 18.225 20.6081 19.0832 21.6666 19.0832C22.7252 19.0832 23.5833 18.225 23.5833 17.1665C23.5833 16.108 22.7252 15.2498 21.6666 15.2498Z" fill="#121212"/>
</svg>
