<svg width="39" height="14" viewBox="0 0 39 14" fill="none" xmlns="http://www.w3.org/2000/svg">
<path fill-rule="evenodd" clip-rule="evenodd" d="M10.0525 13.1253H6.7754L4.31795 3.47426C4.20131 3.03031 3.95365 2.63784 3.58935 2.45286C2.68019 1.988 1.67836 1.61805 0.585449 1.43146V1.0599H5.86464C6.59325 1.0599 7.1397 1.61805 7.23078 2.26627L8.50584 9.22789L11.7814 1.0599H14.9674L10.0525 13.1253ZM16.7889 13.1253H13.6939L16.2424 1.05989H19.3374L16.7889 13.1253ZM23.3431 4.40053C23.4342 3.7507 23.9807 3.37913 24.6182 3.37913C25.62 3.28584 26.7113 3.47242 27.6221 3.93567L28.1685 1.33794C27.2578 0.966372 26.2559 0.779785 25.3468 0.779785C22.3429 0.779785 20.1571 2.45102 20.1571 4.77049C20.1571 6.53502 21.7054 7.46152 22.7983 8.01967C23.9807 8.57621 24.436 8.94778 24.345 9.50432C24.345 10.3391 23.4342 10.7107 22.525 10.7107C21.4321 10.7107 20.3392 10.4324 19.339 9.96757L18.7925 12.5669C19.8855 13.0302 21.0678 13.2168 22.1607 13.2168C25.5289 13.3084 27.6221 11.6388 27.6221 9.13276C27.6221 5.97687 23.3431 5.79189 23.3431 4.40053ZM38.451 13.1253L35.9936 1.05989H33.354C32.8075 1.05989 32.2611 1.43145 32.0789 1.988L27.5283 13.1253H30.7144L31.3503 11.3624H35.265L35.6293 13.1253H38.451ZM33.8102 4.30787L34.7193 8.85512H32.1708L33.8102 4.30787Z" fill="#172B85"/>
</svg>
